<?xml version="1.0" encoding="utf-8"?>
<!-- Generator: Adobe Illustrator 15.0.2, SVG Export Plug-In . SVG Version: 6.00 Build 0)  -->
<!DOCTYPE svg PUBLIC "-//W3C//DTD SVG 1.1//EN" "http://www.w3.org/Graphics/SVG/1.1/DTD/svg11.dtd">
<svg version="1.1" id="Layer_1" xmlns="http://www.w3.org/2000/svg" xmlns:xlink="http://www.w3.org/1999/xlink" x="0px" y="0px"
	  viewBox="10.145 5.615 179 185" enable-background="new 10.145 5.615 179 185" xml:space="preserve">
<g id="compass" opacity="0.3">
	<g id="_x34_5_deg_wrrows">
		<g>
			<polygon fill="#FFFFFF" points="31.63,39.19 38.7,32.12 42.24,42.719 42.24,42.719 			"/>
			<polygon fill="#FFFFFF" points="165.98,159.4 158.911,166.47 155.37,155.86 155.37,155.86 			"/>
			<polygon fill="#FFFFFF" points="38.7,166.47 31.63,159.4 42.24,155.86 42.24,155.86 			"/>
			<polygon fill="#FFFFFF" points="158.911,32.12 165.98,39.19 155.37,42.719 155.37,42.719 			"/>
		</g>
	</g>
	<g id="Layer_3">
		<g>
			<g opacity="0.7">
				<polygon fill="#B7335E" points="98.81,34.01 110.11,86.78 98.81,98.09 				"/>
				<path fill="#F3E9DE" d="M99.81,38.51l10.26,48L99.81,96.88V38.29 M98.81,29.29v70l12.351-12.35L98.81,29.29L98.81,29.29z"/>
			</g>
			<path fill="#B7335E" stroke="#F3E9DE" stroke-miterlimit="10" d="M98.81,99.29L98.81,99.29L98.81,99.29z"/>
			<g opacity="0.3">
				<polygon fill="#B7335E" points="86.5,86.78 97.81,34.01 97.81,98.09 				"/>
				<path fill="#F3E9DE" d="M97.81,38.29v58.59L87.54,86.62l10.26-48.1 M98.81,29.29L86.45,86.94L98.8,99.29v-70H98.81z"/>
			</g>
			<g opacity="0.3">
				<polygon fill="#B7335E" points="100.01,99.29 111.32,87.99 164.09,99.29 				"/>
				<path fill="#F3E9DE" d="M111.48,89.03l47.88,10.26h-58.15L111.48,89.03 M111.161,87.94L98.81,100.29h70L111.161,87.94
					L111.161,87.94z"/>
			</g>
			<path fill="#B7335E" stroke="#F3E9DE" stroke-miterlimit="10" d="M98.81,99.29L98.81,99.29L98.81,99.29z"/>
			<g opacity="0.3">
				<polygon fill="#B7335E" points="98.81,100.5 110.11,111.81 98.81,164.57 				"/>
				<path fill="#F3E9DE" d="M99.81,101.5l10.26,10.36l-10.26,47.99V101.29 M98.81,99.29v70l12.351-57.648L98.81,99.29L98.81,99.29z"
					/>
			</g>
			<g opacity="0.7">
				<polygon fill="#B7335E" points="33.53,99.29 86.29,87.99 97.6,99.29 				"/>
				<path fill="#F3E9DE" d="M86.13,89.03l10.26,10.26H38.24L86.13,89.03 M86.45,87.94L28.8,100.29h70L86.45,87.94L86.45,87.94z"/>
			</g>
			<g opacity="0.7">
				<polygon fill="#B7335E" points="100.01,100.29 164.09,100.29 111.32,111.6 				"/>
				<path fill="#F3E9DE" d="M159.37,101.29l-47.879,10.26l-10.261-10.26h58.59 M168.81,100.29h-70l12.351,12.352L168.81,100.29
					L168.81,100.29z"/>
			</g>
			<g opacity="0.3">
				<polygon fill="#B7335E" points="33.53,100.29 97.6,100.29 86.29,111.6 				"/>
				<path fill="#F3E9DE" d="M96.39,101.29l-10.26,10.26l-47.89-10.26H96.8 M98.81,100.29h-70l57.65,12.352L98.81,100.29
					L98.81,100.29z"/>
			</g>
			<g opacity="0.7">
				<polygon fill="#B7335E" points="86.5,111.81 97.81,100.5 97.81,164.57 				"/>
				<path fill="#F3E9DE" d="M97.81,101.29v58.562L87.55,111.96l10.26-10.47 M98.81,99.29L86.46,111.64l12.35,57.648V99.29
					L98.81,99.29z"/>
			</g>
		</g>
		<g>
			<g opacity="0.7">
				<polygon fill="#B7335E" points="61.34,61.62 97.81,85.21 97.81,98.09 				"/>
				<path fill="#F3E9DE" d="M65.53,64.6l32.28,20.89v11.39L65.53,64.6 M58.15,58.63l40.66,40.66V84.94L58.15,58.63L58.15,58.63z"/>
			</g>
			<path fill="#B7335E" stroke="#F3E9DE" stroke-miterlimit="10" d="M98.81,99.29L98.81,99.29L98.81,99.29z"/>
			<g opacity="0.3">
				<polygon fill="#B7335E" points="61.13,62.83 97.6,99.29 84.73,99.29 				"/>
				<path fill="#F3E9DE" d="M64.11,66.02L96.39,98.3H85L64.11,66.02 M58.15,58.63l26.31,40.66h14.35L58.15,58.63L58.15,58.63z"/>
			</g>
			<g opacity="0.3">
				<polygon fill="#B7335E" points="99.81,85.5 136.27,61.91 99.81,98.38 				"/>
				<path fill="#F3E9DE" d="M132.081,64.89L99.799,97.17V85.78L132.081,64.89 M139.459,58.92L98.81,85.23v14.35L139.459,58.92
					L139.459,58.92z"/>
			</g>
			<path fill="#B7335E" stroke="#F3E9DE" stroke-miterlimit="10" d="M98.81,99.29L98.81,99.29L98.81,99.29z"/>
			<g opacity="0.3">
				<polygon fill="#B7335E" points="100.01,100.29 112.879,100.29 136.48,136.76 				"/>
				<path fill="#F3E9DE" d="M112.709,100.29l20.84,32.28l-32.329-32.28h11.59 M113.161,99.29H98.81l40.66,40.66L113.161,99.29
					L113.161,99.29z"/>
			</g>
			<g opacity="0.7">
				<polygon fill="#B7335E" points="85.02,100.29 97.89,100.29 61.42,136.76 				"/>
				<path fill="#F3E9DE" d="M96.68,100.29L64.4,132.57l20.89-32.28h11.52 M99.1,99.29H84.75l-26.31,40.66L99.1,99.29L99.1,99.29z"/>
			</g>
			<g opacity="0.7">
				<polygon fill="#B7335E" points="136.77,62.83 113.17,99.29 100.299,99.29 				"/>
				<path fill="#F3E9DE" d="M133.79,66.02L112.9,98.29h-11.39L133.79,66.02 M139.75,58.63L99.1,99.29h14.35L139.75,58.63
					L139.75,58.63z"/>
			</g>
			<g opacity="0.3">
				<polygon fill="#B7335E" points="98.81,100.79 98.81,113.66 62.34,137.26 				"/>
				<path fill="#F3E9DE" d="M97.81,102.29v11.102l-32.28,20.88L97.81,102 M98.81,99.58l-40.66,40.66l40.66-26.31V99.58L98.81,99.58z
					"/>
			</g>
			<g opacity="0.7">
				<polygon fill="#B7335E" points="98.81,113.37 98.81,100.5 135.27,136.97 				"/>
				<path fill="#F3E9DE" d="M99.81,101.71l32.28,32.28L99.81,113.1V101.29 M98.81,99.29v14.352l40.66,26.31L98.81,99.29L98.81,99.29
					z"/>
			</g>
		</g>
	</g>
	<g id="pointing">
		<ellipse pointer-events="all" fill="none" cx="101.28" cy="98.115" rx="86.865" ry="92.5"/>
		<polygon fill="#FAF09E" points="103.69,101.63 134.241,23.53 100.01,99.99 		"/>
		<polygon fill="#F7E555" points="134.241,23.53 96.33,98.34 100.01,99.99 		"/>
		<polygon fill="#221211" points="100.01,99.99 65.77,176.45 103.69,101.63 		"/>
		<polygon fill="#391B1A" points="96.33,98.34 65.77,176.45 100.01,99.99 		"/>
		
			<animateTransform  type="rotate" fill="remove" restart="always" dur="30s" to="360 101.05 99.99" from="0 101.05 99.99" accumulate="none" repeatCount="indefinite" attributeName="transform" calcMode="linear" additive="replace">
			</animateTransform>
	</g>
	<g id="numbers" opacity="0.5">
		<text transform="matrix(1 0 0 1 93.2256 24.2927)" fill="#B7335E" font-family="'QuattrocentoRoman'" font-size="16">N</text>
		<text transform="matrix(-1 0 0 -1 103.3071 174.2927)" fill="#B7335E" font-family="'QuattrocentoRoman'" font-size="16">S</text>
		
			<text transform="matrix(4.489659e-011 -1 1 4.489659e-011 23.8057 107.0349)" fill="#B7335E" font-family="'QuattrocentoRoman'" font-size="16">W</text>
		
			<text transform="matrix(-8.746768e-008 1 -1 -8.746768e-008 174.4624 95.2927)" fill="#B7335E" font-family="'QuattrocentoRoman'" font-size="16">E</text>
	</g>
	<g id="Layer_7">
		
			<radialGradient id="SVGID_1_" cx="536.0005" cy="926.5398" r="35.6802" gradientTransform="matrix(1 0 0 1 -437 -826.5391)" gradientUnits="userSpaceOnUse">
			<stop  offset="0.1004" style="stop-color:#F3E9DE"/>
			<stop  offset="1" style="stop-color:#F3E9DE;stop-opacity:0"/>
		</radialGradient>
		<circle fill="url(#SVGID_1_)" cx="99" cy="100" r="35.68"/>
	</g>
</g>
<g id="Layer_2" opacity="0.3">
</g>
</svg>
