<svg version="1.1" id="Layer_1" xmlns="http://www.w3.org/2000/svg" xmlns:xlink="http://www.w3.org/1999/xlink" x="0px" y="0px"
	 width="22.2px" height="18.77px" viewBox="46.41 40.99 22.2 18.77" enable-background="new 46.41 40.99 22.2 18.77"
	 xml:space="preserve">
	 	 <style>
	 	.base {fill:#b7335e;}
		.white {fill:#f7e555;}
	 </style>
<g>
	<path id="delta" class="base" d="M65.03,55.27h2c-0.65,1.36-1.7,2.4-3.15,3.13c-1.45,0.72-3.11,1.09-4.98,1.09c-3.3,0-5.78-0.79-7.45-2.36
		c-1.66-1.57-2.49-3.63-2.49-6.18c0-1.81,0.41-3.45,1.24-4.93s1.96-2.61,3.39-3.38c1.43-0.77,3.09-1.16,4.98-1.16
		c2.39,0,4.32,0.68,5.77,2.03s2.19,3.06,2.19,5.13c0,1.81-0.6,3.4-1.79,4.76c-1.19,1.36-2.65,2.04-4.35,2.04
		c-0.98,0-1.56-0.36-1.75-1.07c-0.72,0.71-1.58,1.07-2.58,1.07c-1.07,0-1.93-0.37-2.58-1.1c-0.65-0.74-0.98-1.7-0.98-2.89
		c0-1.5,0.47-2.9,1.42-4.2c0.95-1.29,2.16-1.94,3.63-1.94c1.12,0,1.95,0.42,2.48,1.26l0.23-1.04h2.47l-1.41,6.71
		c-0.09,0.43-0.13,0.71-0.13,0.83c0,0.3,0.12,0.46,0.37,0.46c0.3,0,0.72-0.2,1.25-0.6c0.53-0.4,1-1,1.42-1.78
		c0.42-0.78,0.63-1.63,0.63-2.55c0-1.47-0.54-2.74-1.61-3.81c-1.08-1.07-2.65-1.61-4.72-1.61c-1.52,0-2.88,0.3-4.07,0.91
		c-1.19,0.61-2.12,1.55-2.78,2.84c-0.66,1.29-1,2.66-1,4.11c0,1.98,0.68,3.59,2.05,4.84c1.37,1.24,3.32,1.87,5.86,1.87
		C61.59,57.77,63.75,56.93,65.03,55.27z M54.9,51.64c0,0.62,0.16,1.12,0.47,1.51c0.31,0.39,0.72,0.58,1.21,0.58
		c0.88,0,1.59-0.49,2.13-1.47c0.53-0.97,0.8-2.02,0.8-3.14c0-0.57-0.14-1.07-0.43-1.5c-0.29-0.43-0.72-0.64-1.3-0.64
		c-0.86,0-1.55,0.46-2.08,1.39C55.16,49.31,54.9,50.39,54.9,51.64z"/>

</g>
</svg>
