<?xml version="1.0" encoding="utf-8"?>
<!-- Generator: Adobe Illustrator 15.0.2, SVG Export Plug-In . SVG Version: 6.00 Build 0)  -->
<!DOCTYPE svg PUBLIC "-//W3C//DTD SVG 1.1//EN" "http://www.w3.org/Graphics/SVG/1.1/DTD/svg11.dtd">
<svg version="1.1" id="Layer_1" xmlns="http://www.w3.org/2000/svg" xmlns:xlink="http://www.w3.org/1999/xlink" x="0px" y="0px"
	 width="177.78px" height="28.61px" viewBox="0 0 177.78 28.61" enable-background="new 0 0 177.78 28.61" xml:space="preserve">
<g>
	<path fill="#b7335e" stroke="#b7335e" stroke-width="0.5" stroke-miterlimit="10" d="M14.54,11.79c1.2-1.03,1.75-1.15,2.78-2.23
		c1.01-1.01,1.51-1.99,2.35-3.1c0.48-0.7,0.67-1.82,0.79-2.64c0.05-0.34-0.02-0.58,0.07-0.91c0.07-0.38,0.67-0.62,1.08-0.6
		c0.53,0.05,0.48,0.62,0.43,1.15c-0.19,1.34-0.77,2.62-1.58,3.74c-0.72,1.01-1.18,1.63-2.04,2.5c-1.37,1.25-2.23,1.94-3.6,2.88
		c-0.41,0.29-1.01,0.7-1.51,0.94c0.43,0.7,0.24,1.54,0.24,2.9v0.6c-0.07,0.36-0.05,0.79,0.05,1.18c0.22,0.94,0.31,1.85,0.96,2.74
		c0.29,0.41,0.74,0.84,1.03,1.18c0.55,0.6,1.13,0.6,1.68,0.62c1.44,0.07,3.46-1.75,3.72-1.7c0,0,0.26-0.14,0.19,0.19
		c-0.74,0.6-1.08,1.03-1.7,1.42c-0.96,0.62-2.04,1.32-2.88,1.25c-0.89-0.07-1.82-0.7-2.18-1.08c-0.24-0.24-0.62-0.67-0.94-1.2
		c-0.17-0.31-0.38-0.65-0.48-1.01c-0.1-0.41-0.34-0.7-0.41-1.13c-0.19-1.2-0.19-2.33,0.02-3.67c0.02-0.19,0.22-1.37-0.14-1.37
		c-0.14,0-0.24,0-0.34,0.02c-0.17-0.02-0.36,0.07-0.55,0.14c-0.1,0.05-0.17,0.07-0.26,0.12c-1.1,0.38-1.49,0.79-2.28,1.03
		c-0.38,0.12-0.72,0.05-0.86-0.22c-0.29,0.34-0.6,0.67-0.98,1.06c-0.48,0.48-0.98,1.01-1.39,1.37c-0.6,0.55-1.03,0.82-1.68,1.37
		c-0.72,0.65-1.18,1.2-2.11,1.1c-0.22-0.02-0.46-0.14-0.41-0.36c0.12-0.65,0.82-0.72,1.39-1.08c0.77-0.53,1.13-0.96,1.82-1.51
		c0.19-0.17,0.38-0.34,0.67-0.62c1.49-1.46,2.21-2.52,3.48-4.13c0.65-0.77,3.07-3.77,3.58-4.56c-0.89,0.62-1.15,0.67-2.14,1.32
		c-0.98,0.55-2.71,1.87-3.48,2.14c-0.53,0.19-0.07-0.82,0.26-1.06c0.24-0.17,0.6-0.55,1.01-0.77c0.36-0.19,0.05,0.31,0.29,0.24
		c1.61-1.03,3.29-2.06,4.8-3.26c0.77-0.6,1.87-2.42,2.57-2.35c0.31,0.05,0.5,0.41,0.41,0.7c-0.05,0.26-2.98,3.7-3.48,4.22
		c-0.67,0.72-2.21,2.81-2.83,3.74c-0.14,0.22-0.26,0.38-0.38,0.58c0.29-0.17,0.6-0.29,0.91-0.43c0.22-0.1,0.79-0.29,1.06-0.29
		c0.6,0,0.58,0.31,1.15,0.05c0.17-0.07,0.34-0.14,0.48-0.22c0.22-0.14,0.46-0.31,0.72-0.5C14.08,12.15,14.32,11.98,14.54,11.79z"/>
	<path fill="#b7335e" stroke="#b7335e" stroke-width="0.5" stroke-miterlimit="10" d="M21.07,15.48c0,0.22,0.48,0.86,0.48,1.51
		c0,0.34-0.34,0.82-0.55,1.15c-0.26,0.41-0.14,0.26-0.48,0.72c-0.1,0.14-0.19,0.29-0.19,0.41c0,0.1,0.07,0.17,0.22,0.14
		c0.22,0,2.52-0.82,3.38-1.46c0.38-0.17,0.48,0,0.31,0.24c-0.14,0.12-0.58,0.46-0.74,0.48c-0.58,0.43-3.34,1.97-3.7,1.97
		c-0.82,0-1.13-0.5-0.89-0.86c0.48-0.72,1.51-2.4,1.51-2.78c0-0.22-0.29-0.43-0.5-0.43c-0.34,0.05-0.82,0.58-1.22,0.91
		c-0.46,0.38-1.22,0.94-1.44,0.94s-0.26-0.02-0.17-0.22c0.34-0.24,1.49-1.18,1.75-1.49c0,0,0.34-0.38,0.41-0.5
		c0.1-0.17,0.17-0.36,0.24-0.5c0.14-0.31,0.38-0.82,0.6-1.06c0.07-0.1,0.34-0.12,0.41-0.12C20.99,14.52,21.07,15.31,21.07,15.48z"/>
	<path fill="#b7335e" stroke="#b7335e" stroke-width="0.5" stroke-miterlimit="10" d="M25.94,19.8c-0.22,0-0.34-0.46-0.34-0.62
		c0-0.62,0.12-1.27,0.36-1.85c-0.29,0.14-2.11,1.1-2.26,1.1c-0.1,0-0.17-0.05-0.24-0.1c0.02-0.24,1.15-0.74,1.39-0.86
		c0.91-0.5,1.75-1.25,2.47-1.99c0.19-0.22,0.62-1.01,0.89-1.01c0.14,0,0.24,0.17,0.24,0.29c0,0.43-1.97,2.4-1.97,3.53
		c0,0.02,0.07,0.19,0.07,0.24c0.07,0.02,0.17,0.1,0.24,0.1c0.72,0,1.18-0.7,1.82-0.89l0.14,0.05C28.63,18.22,26.39,19.8,25.94,19.8z
		 M30.83,10.2c0.17,0.5,0.12,1.18-0.55,1.58c-0.58,0.12-0.17,0.96-0.79,1.01c-0.34-0.1,0-1.42,0-1.42c0-0.31,0.36-1.61,0.89-1.61
		C30.59,9.77,30.76,10.01,30.83,10.2z"/>
	<path fill="#b7335e" stroke="#b7335e" stroke-width="0.5" stroke-miterlimit="10" d="M34.34,13.2c0,1.13-1.06,2.14-1.49,2.71
		c-0.17,0.6-0.19,1.34-0.58,2.23c-0.14,0.31-0.58,0.89-0.58,0.96c0.07,0.22,0.77-0.19,0.84-0.24c0.79-0.43,1.18-0.7,1.61-0.91
		c0.31-0.17,0.5-0.17,0.12,0.22c-0.26,0.26-1.27,0.91-1.75,1.18c0,0-1.3,0.72-1.51,0.77c-0.07,0.02-1.15,1.63-1.51,1.8
		c-0.36,0.17-1.06,0.19-1.49,0.19c-0.12,0-0.38-0.22-0.43-0.26c-0.41-0.7,0.91-1.39,1.15-1.49c0.1-0.05,0.24-0.22,0.36-0.26
		c0.05-0.02,1.06-0.48,1.15-0.48c0.26-0.07,1.44-1.78,1.63-3.05c0.02-0.1,0-0.12-0.07-0.17c-0.12-0.05-0.31,0.07-0.46,0.14
		c-0.29,0.14-0.65,0.43-0.72,0.46c-0.67,0.36-1.01,0.5-1.99,1.03c-0.24,0.14-0.5,0.29-0.65,0.31c-0.07,0-0.1-0.02-0.1-0.05
		c0-0.22,0.53-0.48,0.62-0.53c1.18-0.77,2.81-1.78,3.84-2.71c0.43-0.84,1.13-2.18,1.56-2.18C34,12.87,34.34,13.06,34.34,13.2z
		 M29.23,21.12c0.26-0.14,0.53-0.48,0.7-0.72C28.41,20.79,28.46,21.53,29.23,21.12z"/>
	<path fill="#b7335e" stroke="#b7335e" stroke-width="0.5" stroke-miterlimit="10" d="M71.44,9.46c-3.22,0.5-6.46,0.77-9.7,0.91
		c-3.74,0.14-7.44,0.96-11.19,0.96c-1.92,0-3.84-0.31-5.76-0.46c-2.09,1.2-3.38,3.34-4.99,5.06c-0.91,0.98-1.92,1.87-2.95,2.76
		c-0.7,0.6-3,3.17-3.74,3.17c-0.26,0-0.48-0.12-0.48-0.41c0-0.46,0.26-0.7,0.58-0.98c0.84-0.77,1.63-1.56,2.59-2.18
		c0.84-0.55,1.37-1.42,2.06-2.11c0.43-0.43,0.94-0.82,1.34-1.27c1.13-1.25,1.99-2.71,3.1-3.96c-1.99-0.5-4.01-0.96-6.07-0.96
		c-1.27,0-2.52-0.29-3.79-0.29c-1.03,0-6.77,0.05-6.77,1.34c0,0.53,0.91,0.46,1.08,1.01c-0.07,0.1-0.19,0.17-0.31,0.17
		c-0.53,0-2.59-0.79-2.59-1.39c0-0.72,2.54-1.15,3.12-1.27c1.68-0.34,3.38-0.31,5.09-0.31c2.06,0,4.08,0.29,6.14,0.29
		c1.68,0,3.29,0.55,4.94,0.74c0.82-0.7,1.73-1.22,2.59-1.87c1.32-0.98,2.64-2.69,4.42-2.69c0.26,0,0.89,0.12,0.89,0.48
		c0,1.13-4.63,3.43-5.64,4.1c1.66,0.05,3.29,0.41,4.94,0.41c2.16,0,4.3-0.43,6.46-0.62c1.68-0.14,3.34-0.1,5.02-0.17
		c1.61-0.07,3.22-0.29,4.8-0.5c1.44-0.19,2.9-0.34,4.34-0.6c0.86-0.17,1.7-0.48,2.59-0.48c0.29,0,0.72,0.02,0.72,0.41
		C74.28,9.1,71.85,9.39,71.44,9.46z"/>
	<path fill="#b7335e" stroke="#b7335e" stroke-width="0.5" stroke-miterlimit="10" d="M42.35,19.8c-0.22,0-0.34-0.46-0.34-0.62
		c0-0.62,0.12-1.27,0.36-1.85c-0.29,0.14-2.11,1.1-2.26,1.1c-0.1,0-0.17-0.05-0.24-0.1c0.02-0.24,1.15-0.74,1.39-0.86
		c0.91-0.5,1.75-1.25,2.47-1.99c0.19-0.22,0.62-1.01,0.89-1.01c0.14,0,0.24,0.17,0.24,0.29c0,0.43-1.97,2.4-1.97,3.53
		c0,0.02,0.07,0.19,0.07,0.24c0.07,0.02,0.17,0.1,0.24,0.1c0.72,0,1.18-0.7,1.82-0.89l0.14,0.05C45.04,18.22,42.81,19.8,42.35,19.8z
		 M47.25,10.2c0.17,0.5,0.12,1.18-0.55,1.58c-0.58,0.12-0.17,0.96-0.79,1.01c-0.34-0.1,0-1.42,0-1.42c0-0.31,0.36-1.61,0.89-1.61
		C47.01,9.77,47.18,10.01,47.25,10.2z"/>
	<path fill="#b7335e" stroke="#b7335e" stroke-width="0.5" stroke-miterlimit="10" d="M49.7,16.49c0,0.26,0.02,0.36-0.36,0.82
		c-0.38,0.46-0.12,0.79,0.02,0.79c0.12,0,3.26-1.87,3.72-1.87c0.24,0,0.77-0.05,0.77,0.48c0,0.31-1.42,1.42-1.42,1.56
		c0,0.31,0.19,0.43,0.48,0.43c1.42,0,1.99-0.26,3.1-0.86c0.24-0.07,0.58-0.05,0.1,0.26c-0.36,0.22-2.04,1.22-3.36,1.25
		c-0.98,0-1.58-0.17-1.58-0.91c0-0.26,0.36-0.48,0.36-0.74c-0.07-0.02,0.02-0.1-0.14-0.1c-0.22,0-1.58,0.89-1.85,1.01
		c-0.65,0.31-2.45,1.39-2.71,1.39c-0.17,0-0.48,0.07-0.48-0.53c0-0.26,1.51-1.66,1.42-1.68c0-0.07,0.43-0.29,0.43-0.41
		c0-0.34-0.17-0.46-0.38-0.46c-0.84,0-3.43,1.54-3.65,1.61c-0.12,0-0.14-0.19,0-0.26c0.77-0.53,3.48-2.35,4.7-2.35
		C49.19,15.91,49.7,16.2,49.7,16.49z"/>
	<path fill="#b7335e" stroke="#b7335e" stroke-width="0.5" stroke-miterlimit="10" d="M71.23,20.55c3.43-0.55,6.53-2.62,8.69-5.18
		c0.79-0.94,1.3-2.04,1.73-3.17c0.65-1.56,1.39-3.17,1.22-4.94c-0.1-1.1-0.53-1.9-1.75-1.9c-0.43,0-0.86,0.22-1.3,0.22
		c-0.26,0-0.53-0.24-0.55-0.5c-0.02-0.41,1.56-0.74,1.9-0.74c0.46,0,1.27,0.29,1.63,0.6c0.89,0.17,1.34,1.7,1.42,2.45
		c0.41,4.66-3.79,9.15-7.06,11.79c-1.44,1.15-4.92,2.86-8.04,2.93c-1.85-0.05-5.18,0-5.45-2.74c-0.02-0.14-0.02-0.29,0-0.43
		c0.24-2.4,1.37-4.63,3.1-6.19c0.86-0.77,1.87-1.34,2.69-2.16c0.84-0.74,2.9-1.46,3.72-1.73c1.13-0.36,2.11-0.91,3.29-0.91
		c0.82,0,1.22,0.67,1.3,1.44c0.05,0.46-0.22,1.46-0.79,1.46c-0.26,0-0.36-0.1-0.38-0.36c0-0.17,0.17-0.46,0.14-0.74
		c-0.02-0.31-0.05-0.74-0.48-0.74c-0.31,0-1.85,0.5-2.35,0.6c-0.89,0.17-3,0.96-3.74,1.42c-2.33,1.42-4.92,4.63-4.66,7.63
		c0.14,1.56,2.62,2.09,3.84,2.09c0.24,0,0.48,0,0.7-0.02L71.23,20.55z"/>
	<path fill="#b7335e" stroke="#b7335e" stroke-width="0.5" stroke-miterlimit="10" d="M84.71,18.65c0,0.43-0.58,1.01-0.86,1.01
		c-0.41,0-1.18-0.17-1.18-0.7c0-0.14,0.94-1.15,1.49-1.15c0.17,0,0.48,0.58,0.53,0.77C84.69,18.6,84.71,18.63,84.71,18.65z"/>
	<path fill="#b7335e" stroke="#b7335e" stroke-width="0.5" stroke-miterlimit="10" d="M129.57,0.62c0,0.29-0.24,0.77-0.48,0.94
		c-2.81,2.93-9.67,7.9-9.67,8.76c0,0.29-4.25,5.81-5.9,8.45c-1.06,1.63-2.81,3.94-4.08,5.71c-0.07,0.17-0.02,0.22,0.1,0.22
		c0.58,0.02,13.8-15.51,15.77-15.51c0.29,0,0.48,0.19,0.48,0.43c0,0.7-3.22,2.74-4.94,5.66c-0.36,0.62-1.78,3.6-1.97,4.92
		c-0.1,0.89,0.36,0.7,1.01,0.55c0.86-0.22,2.21-0.79,2.9-1.13c2.33-1.1,2.78-1.54,3.82-2.14c0.29-0.17,0.5,0.1,0.17,0.38
		c-0.7,0.46-1.58,1.03-3.62,2.21c-0.22,0.14-2.47,1.51-4.03,2.18c-0.62,0.26-1.06,0.26-1.3,0.26c-0.26,0-0.5-0.19-0.53-0.53
		c-0.02-0.22,0-0.55,0.05-0.86c0.31-1.73,1.8-5.02,2.81-6.55c-1.61,1.54-7.03,8.19-12.07,12.82c-0.48,0.22-1.22-0.29-1.22-0.58
		c0-1.15,8.81-12.96,10.37-15.46c-0.07,0.07,0.29-0.36-0.36-0.05c-0.36,0.17-3.82,2.9-4.34,3.24c-2.23,1.56-4.92,3.55-7.08,4.85
		c-1.34,0.82-3.17,1.8-4.37,2.54c-0.94,0.46-6.05,3.14-7.03,3.14c-0.24,0-0.36-0.22-0.36-0.5c0-1.08,3.12-2.66,4.22-3.22
		c0.19-0.05,0.29-0.05,0.41,0.24c0.05,0.07,0.12,0.17,0.29,0.17c0.86,0,6.72-3.36,7.3-3.77c3.7-2.64,7.97-5.59,12.12-8.64
		c2.02-1.56,5.98-4.94,5.98-5.42c0-0.67,4.73-3.96,5.14-3.96C129.35,0,129.57,0.41,129.57,0.62z"/>
	<path fill="#b7335e" stroke="#b7335e" stroke-width="0.5" stroke-miterlimit="10" d="M132.59,14.38c0,1.56-1.66,2.3-2.95,3.14
		c-0.36,0.24-2.57,0.94-2.57,1.42c0,0.29,0.67,0.38,0.79,0.38c1.15,0,2.88-0.43,4.54-1.37c0.65-0.29,0.43,0.07,0.17,0.26
		c-1.22,0.94-2.93,1.78-5.18,1.78c-0.96,0-1.22-0.46-1.54-1.13c-0.1-0.22,0.29-1.1,0.62-1.66c0.74-1.18,1.92-2.21,3.07-2.83
		c0.84-0.46,1.58-0.55,2.33-0.55C132.33,13.83,132.59,14.11,132.59,14.38z M127.5,17.43c0,0-0.24,0.43,0.36,0.19
		c0.55-0.19,3.74-1.85,3.74-2.45c0-0.19-0.14-0.34-0.46-0.34C130.1,14.83,128.08,16.37,127.5,17.43z"/>
	<path fill="#b7335e" stroke="#b7335e" stroke-width="0.5" stroke-miterlimit="10" d="M136.07,15.48c0,0.22,0.48,0.86,0.48,1.51
		c0,0.34-0.34,0.82-0.55,1.15c-0.26,0.41-0.14,0.26-0.48,0.72c-0.1,0.14-0.19,0.29-0.19,0.41c0,0.1,0.07,0.17,0.22,0.14
		c0.22,0,2.52-0.82,3.38-1.46c0.38-0.17,0.48,0,0.31,0.24c-0.14,0.12-0.58,0.46-0.74,0.48c-0.58,0.43-3.34,1.97-3.7,1.97
		c-0.82,0-1.13-0.5-0.89-0.86c0.48-0.72,1.51-2.4,1.51-2.78c0-0.22-0.29-0.43-0.5-0.43c-0.34,0.05-0.82,0.58-1.22,0.91
		c-0.46,0.38-1.22,0.94-1.44,0.94s-0.26-0.02-0.17-0.22c0.34-0.24,1.49-1.18,1.75-1.49c0,0,0.34-0.38,0.41-0.5
		c0.1-0.17,0.17-0.36,0.24-0.5c0.14-0.31,0.38-0.82,0.6-1.06c0.07-0.1,0.34-0.12,0.41-0.12C136,14.52,136.07,15.31,136.07,15.48z"/>
	<path fill="#b7335e" stroke="#b7335e" stroke-width="0.5" stroke-miterlimit="10" d="M150.98,6.91c0.17,0.17,0.07,0.53-0.07,0.65
		c0,0-0.67,0.5-1.63,1.32c-0.12,0.17-1.56,1.34-1.66,1.44c-1.34,1.22-3.1,2.81-4.49,4.27c0.22,0.38,0.89-0.1,1.18,0.36
		c0.14,0.24,0.12,0.94,0.12,0.94c0,0.77-1.06,1.75-1.39,2.4c0.02,0.05,0.02,0.14,0.17,0.14c0.96-0.07,1.32-0.22,1.8-0.58
		c0.17-0.12,0.31,0,0.24,0.1c-0.34,0.43-0.43,0.38-1.01,0.74c-0.38,0.07-0.96,0.26-1.39,0.24c-0.17,0.05-0.34,0.14-0.46,0.26
		c-0.65,0.58-2.78,2.35-3.29,2.35c-0.17,0-0.62-0.26-0.67-0.34c-0.14-0.22-0.02-1.03,0.02-1.18c0.14-0.53,0.46-0.91,0.41-1.37
		c0.05-0.29-0.29-0.48,0.12-0.72c0.17-0.1,0.38-0.41,0.53-0.53c0.5-0.65,0.77-0.96,1.15-1.27c0-0.22,0.89-1.2,2.11-2.38
		c0.96-0.91,1.92-1.97,2.98-3.02c0.29-0.29,1.2-1.25,1.56-1.56c0.53-0.5,1.08-1.03,1.56-1.44c0.48-0.38,0.77-0.62,1.3-0.84
		C150.4,6.77,150.81,6.74,150.98,6.91z M139.31,20.07c0.07,0.46,0.22,0.43,0.38,0.38c0.53-0.19,1.37-0.84,1.85-1.68
		c-0.43-0.19-0.72-0.6-0.86-1.27C139.67,18.79,139.55,19.15,139.31,20.07z M141.45,17.43c0,0.17,0.02,0.86,0.5,0.86
		c0.55,0,1.13-1.39,1.27-1.58c-0.07-0.24-0.38-0.41-0.58-0.41C142.17,16.3,141.45,16.92,141.45,17.43z"/>
	<path fill="#b7335e" stroke="#b7335e" stroke-width="0.5" stroke-miterlimit="10" d="M150.06,15.15c0.14,0.24,0.19,0.43,0.26,0.65
		c0,0-0.02,0.02,0.07,0.02c0.22,0,0.26-0.38,0.72-0.38c0.17,0,0.41,0.02,0.46,0.24c0.19,0.5-0.36,0.72-0.58,1.08
		c-0.41,0.55-0.6,1.01-0.67,1.8c-0.02,0.17,0.29,0.19,0.38,0.17c1.3-0.31,1.63-0.67,2.11-0.89c0.22-0.1,0.29,0.07,0.12,0.24
		c-0.65,0.6-1.44,0.91-1.99,1.15c-0.36,0.17-0.98,0.31-1.08,0.31c-0.17,0-0.43-0.29-0.48-0.36c-0.12-0.38,0.19-1.06,0.19-1.25
		c0-0.1-0.07-0.19-0.17-0.14c0,0-0.12,0.05-0.26,0.17c-0.1,0.12-0.26,0.29-0.48,0.43c-0.62,0.48-1.82,1.27-2.21,1.27
		c-0.36,0-1.39-0.19-1.54-0.67c-0.1-0.36,0.31-1.13,0.79-1.63c0.62-0.62,1.68-1.22,2.47-1.68c0.65-0.36,1.22-0.6,1.49-0.6
		C149.77,15.07,149.99,15.1,150.06,15.15z M148.36,16.61c-0.22,0.12-0.46,0.26-0.67,0.41c-0.46,0.34-0.77,0.67-0.82,0.72
		c-0.34,0.31-0.7,0.62-0.62,0.82c0.02,0.07,0.14,0.14,0.26,0.14c0.17,0,0.38-0.12,0.65-0.22c0.26-0.12,0.6-0.29,0.89-0.46
		c0.55-0.34,0.96-0.7,1.1-0.82c0.12-0.14,0.38-0.31,0.43-0.53c0.1-0.17,0.1-0.34,0.07-0.38c-0.02-0.12-0.1-0.12-0.36-0.12
		C149.13,16.18,148.77,16.39,148.36,16.61z"/>
	<path fill="#b7335e" stroke="#b7335e" stroke-width="0.5" stroke-miterlimit="10" d="M160.34,16.11c0,0.12-0.07,0.36-0.26,0.58
		c-0.17,0.19-0.46,0.36-0.72,0.48c-0.36,0.14-1.13-0.12-1.13-0.34c0-0.12,0.1-0.29,0.26-0.46c0.14-0.14,0.43-0.14,0.43-0.36
		c0-0.1-0.12-0.1-0.19-0.1c-0.67,0-1.63,0.36-2.5,0.91c-0.46,0.29-0.84,0.65-1.18,1.01c-0.53,0.55-0.96,1.3-0.96,1.78
		c0,0.5,0.74,0.65,0.84,0.65c0.1,0,0.74-0.1,1.13-0.17c0.65-0.22,1.8-0.43,2.47-0.77c1.13-0.55,1.78-0.82,2.93-1.54
		c0.26-0.1,0.24,0.12,0.05,0.26c-0.48,0.31-0.86,0.53-1.51,0.91c-0.7,0.38-2.71,1.3-3.17,1.46c-0.48,0.17-1.9,0.46-2.16,0.46
		c-1.49,0-1.68-0.7-1.68-1.06c0-0.62,0.41-1.2,0.65-1.66c0.07-0.14,0.62-0.72,0.77-0.91c0.29-0.34,1.15-1.01,1.94-1.34
		c1.03-0.43,2.26-0.7,2.9-0.7C159.78,15.22,160.34,15.46,160.34,16.11z"/>
	<path fill="#b7335e" stroke="#b7335e" stroke-width="0.5" stroke-miterlimit="10" d="M176.13,6.29c-0.02,0.58-2.02,3.02-2.26,3.22
		c-0.48,0.48-1.22,1.54-1.82,2.06c-0.82,0.77-2.18,1.56-3.12,2.42c-0.07,0.07-0.79,0.6-0.86,0.7c1.18-0.29,1.42,0.14,1.39,0.7
		c0,0.14-0.12,0.53-0.12,0.67c-0.02,0.84-1.87,2.28-2.16,2.74l-0.02,0.14c0.05,0.05,0.43,0.26,0.58,0.26c1.08,0,3.14-1.01,3.55-1.25
		c0.7-0.41,0.77-0.1,0.17,0.26c-0.62,0.36-3.41,1.78-3.89,1.78c-0.34,0-1.49-0.24-1.46-0.77c0.02-0.79,0.58-1.32,1.15-1.92
		c0.38-0.34,0.7-0.77,0.94-1.1c0.22-0.22,0.26-0.53,0.26-0.77c0-0.14-0.22-0.34-0.38-0.34c-0.19,0-0.67,0.29-1.3,0.67
		c-0.91,0.58-2.02,1.46-2.59,2.09c-0.26,0.24-0.22,0.41-0.48,0.53c-0.86,0.41-2.66,3.34-3.41,3.34c-0.38,0-0.58-0.58-0.58-0.65
		c0.02-0.58,1.27-1.3,1.46-1.51c0.65-0.62,1.2-1.25,1.9-1.99c-0.05-0.07-0.12-0.19-0.29-0.19c-0.14,0-0.79,0.46-0.82,0.53
		c-0.58,0.38-0.7,0.43-1.1,0.6c-0.12,0-0.22,0.02-0.22-0.07c0-0.07,0.05-0.12,0.07-0.17c0.94-0.58,2.57-1.58,3.1-1.97
		c0.14-0.1,0.74-0.58,1.37-1.25c0.86-0.94,1.87-2.09,2.14-2.38c0.31-0.36,1.46-1.73,1.73-2.04c0.14-0.17,0.12-0.14,0.36-0.38
		c0.5-0.48,1.39-1.37,2.26-2.16c0.74-0.58,1.39-1.22,1.82-1.46c0.43-0.24,1.3-1.08,1.92-1.08C175.82,5.54,176.13,5.88,176.13,6.29z
		 M168.57,12.41c-0.48,0.53-1.34,1.46-1.34,1.46c0,0.05-0.34,0.36-0.43,0.74c1.13-0.46,2.42-1.49,3.26-2.14
		c1.18-0.91,4.68-4.54,4.7-4.94V7.32c-0.14-0.07-0.22-0.07-0.34-0.07C173.08,7.25,168.81,12.17,168.57,12.41z"/>
</g>
</svg>
