<svg version="1.1" id="Layer_1" xmlns="http://www.w3.org/2000/svg" xmlns:xlink="http://www.w3.org/1999/xlink" x="0px" y="0px"
	 width="22.2px" height="18.77px" viewBox="46.41 40.99 22.2 18.77" enable-background="new 46.41 40.99 22.2 18.77"
	 xml:space="preserve">
	 <style>
	 	.base {fill:#b7335e;}
		.white {fill:#f7e555}
	 </style>
<path class="base" id="delta" fill="#B7335E" d="M57.34,47.07c0,0-5.46,0.1-9.4-4.77c0,0-1.96,3.5,1.41,6.09c0,0-1.22-0.02-2.05-0.57
	c0,0-0.09,3.64,3.64,4.49c0,0-0.85,0.41-2.07,0.09c0,0,1,3.11,4.25,3.18c0,0-2.48,2.35-6.71,1.87c0,0,8.73,5.92,16.87-2.4
	c0,0,3.33-4.55,2.96-9.06c0,0,1.85-1.41,2.37-2.44c0,0-2.02,0.92-2.59,0.78c0,0,1.54-0.93,1.96-2.53c0,0-2.02,1.07-2.89,1.13
	c0,0-1.96-2.42-5.42-0.94C56.21,43.45,57.34,47.07,57.34,47.07z"/>
</svg>
